<?xml version="1.0" encoding="UTF-8" standalone="no"?>
<!DOCTYPE svg PUBLIC "-//W3C//DTD SVG 1.1//EN" "http://www.w3.org/Graphics/SVG/1.1/DTD/svg11.dtd">
<svg width="100%" height="100%" viewBox="0 0 36 36" version="1.1" xmlns="http://www.w3.org/2000/svg" xmlns:xlink="http://www.w3.org/1999/xlink" xml:space="preserve" xmlns:serif="http://www.serif.com/" style="fill-rule:evenodd;clip-rule:evenodd;stroke-linejoin:round;stroke-miterlimit:2;">
	<path d="M 0 18 C 0 0, 0 0, 18 0 S 36 0, 36 18, 36 36 18 36, 0 36, 0 18" style="fill:rgb(22,154,202);fill-rule:nonzero;"/>
    <g transform="matrix(0.0390625,0,0,0.0390625,8,8)">
        <path d="M0,256C-0,115.563 115.563,0 256,0C396.437,-0 512,115.563 512,256C512,396.437 396.437,512 256,512C115.563,512 0,396.437 0,256ZM188.3,147.1C180.7,151.3 176,159.4 176,168L176,344C176,352.7 180.7,360.7 188.3,364.9C195.9,369.1 205.1,369 212.6,364.4L356.6,276.4C363.7,272 368.1,264.3 368.1,255.9C368.1,247.5 363.7,239.8 356.6,235.4L212.6,147.4C205.2,142.9 195.9,142.7 188.3,146.9L188.3,147.1Z" style="fill:white;fill-rule:nonzero;"/>
    </g>
</svg>
